<svg width="80" height="29" viewBox="0 0 80 29" fill="none" xmlns="http://www.w3.org/2000/svg">
<path fill-rule="evenodd" clip-rule="evenodd" d="M57.8812 2.17344C57.0361 2.17344 56.2634 2.40311 55.6625 2.7883C55.1752 2.58774 54.6165 2.4724 54.0245 2.4724C52.1132 2.4724 50.5659 3.66042 50.5659 5.12364C50.5659 5.41037 50.6255 5.68861 50.7355 5.94722C50.1963 6.4144 49.8676 7.02347 49.8676 7.69591C49.8676 7.92333 49.9081 8.14528 49.9785 8.3559C49.6686 8.43292 49.3818 8.54054 49.1171 8.67743C48.601 8.88153 48.1556 9.17456 47.8316 9.54049C47.8309 9.54067 47.8322 9.54591 47.8316 9.54612C47.5089 9.65065 47.205 9.76649 46.918 9.89586C46.3712 8.80169 45.3276 8.00787 44.0858 7.82C43.4427 7.31838 42.6435 7.01899 41.7692 7.01899C40.9427 7.01899 40.1748 7.28257 39.5504 7.73538C38.9716 7.37623 38.295 7.16565 37.5666 7.16565C35.5821 7.16565 33.955 8.70599 33.7751 10.6687C33.4227 10.5597 33.0469 10.4994 32.6592 10.4994C31.4889 10.4994 30.4413 11.0348 29.7422 11.8758C29.5492 11.8676 29.3519 11.8589 29.1549 11.8589C28.5409 11.8589 27.9491 11.9004 27.3799 11.9774C26.7214 10.8218 25.4897 10.0425 24.0779 10.0425C22.476 10.0425 21.1047 11.0442 20.5409 12.4625C19.9416 11.1263 18.619 10.1948 17.0758 10.1948C15.9116 10.1948 14.8708 10.7266 14.1718 11.5599C13.7173 11.366 13.2211 11.2553 12.697 11.2553C11.1229 11.2553 9.76745 12.2227 9.18613 13.602C8.62177 13.2673 7.96873 13.0717 7.26757 13.0717C5.85318 13.0717 4.61665 13.8532 3.95902 15.0122C3.68487 14.8906 3.37691 14.8204 3.05846 14.8204C1.82462 14.8204 0.82666 15.8325 0.82666 17.0824C0.82666 18.3323 1.82462 19.3444 3.05846 19.3444C3.43296 19.3444 3.79257 19.2556 4.10258 19.0906C4.11584 19.1105 4.13464 19.1274 4.14826 19.147C4.44065 19.8732 5.09501 20.4092 5.88411 20.529C6.31247 20.6979 6.78025 20.7941 7.26757 20.7941C7.95261 20.7941 8.59145 20.607 9.14698 20.2865C9.41601 21.2303 10.2756 21.9223 11.2939 21.9223C11.4574 21.9223 11.6169 21.9053 11.7703 21.8716C12.2537 22.0736 12.7906 22.1875 13.3561 22.1875C13.8348 22.1875 14.2908 22.1035 14.7134 21.9562C15.1074 22.3109 15.6257 22.5259 16.1948 22.5259C16.9039 22.5259 17.5344 22.1904 17.9437 21.6685C18.863 23.0983 21.3076 24.1483 24.241 24.2633C24.6263 24.9435 25.3495 25.4028 26.1792 25.4028C26.9231 25.4028 27.5807 25.0328 27.9868 24.4664C28.1981 24.6609 28.4352 24.8481 28.7046 25.0192C28.8778 26.0945 29.7999 26.9146 30.9103 26.9146C31.5149 26.9146 32.0612 26.6723 32.4635 26.2771L32.5222 26.2828C32.8586 27.1011 33.6546 27.6761 34.5843 27.6761C34.8513 27.6761 35.1105 27.6277 35.3478 27.5407C36.6704 28.3244 38.5879 28.8155 40.7185 28.8155C43.5432 28.8155 45.984 27.9509 47.1725 26.6889C47.3345 26.683 47.4965 26.6723 47.6554 26.6607C48.1022 26.8264 48.5971 26.9258 49.1237 26.9258C50.5673 26.9258 51.8023 26.2283 52.3213 25.2392C52.4079 25.1812 52.4889 25.125 52.5693 25.0643C52.7586 25.0896 52.9516 25.1094 53.15 25.1094C53.4498 25.1094 53.7406 25.0756 54.018 25.0192C54.4033 25.6994 55.1264 26.1587 55.9561 26.1587C56.8576 26.1587 57.6325 25.6175 57.9856 24.8387C58.1789 24.8643 58.3766 24.8782 58.5795 24.8782C59.2397 24.8782 59.8556 24.7346 60.3806 24.4889C60.7801 24.8682 61.3169 25.0982 61.9076 25.0982C62.8557 25.0982 63.6649 24.4983 63.9893 23.6541C64.0825 23.6625 64.1747 23.671 64.2699 23.671C64.5045 23.671 64.7337 23.6416 64.9551 23.592C65.3273 23.8728 65.7866 24.0377 66.2864 24.0377C67.2073 24.0377 68.0001 23.473 68.342 22.6669C68.8663 22.9187 69.484 23.0618 70.1431 23.0618C71.4881 23.0618 72.6505 22.4607 73.2232 21.5782C73.6234 21.7055 74.0637 21.7757 74.5218 21.7757C76.4332 21.7757 77.9805 20.5561 77.9805 19.0511C77.9805 18.8728 77.9567 18.7008 77.9152 18.5321C78.1816 18.146 78.3329 17.705 78.3329 17.2347C78.3329 16.3562 77.8017 15.5782 76.9821 15.0799C77.0616 14.8505 77.106 14.607 77.106 14.3578C77.106 12.8528 75.5522 11.6333 73.6409 11.6333C73.4718 11.6333 73.3075 11.6487 73.1449 11.6671C73.2117 11.4617 73.2493 11.2509 73.2493 11.0297C73.2493 9.56646 71.702 8.37844 69.7907 8.37844C69.7354 8.37844 69.6822 8.38212 69.6275 8.38407C69.2416 7.70639 68.5172 7.25025 67.6894 7.25025C67.366 7.25025 67.0598 7.32241 66.7823 7.44768C65.9256 6.17873 63.8589 5.22029 61.3268 4.96567C61.3303 4.91676 61.3399 4.86859 61.3399 4.819C61.3399 3.35578 59.7925 2.17341 57.8812 2.17341V2.17344ZM66.5931 12.0451C66.7221 12.2829 66.8994 12.5025 67.1086 12.6994C66.9165 12.6774 66.7187 12.6623 66.5213 12.6486C66.5724 12.4675 66.5931 12.283 66.5931 12.0902C66.5931 12.075 66.5935 12.0602 66.5931 12.0451ZM58.958 12.581C59.2144 12.6004 59.4767 12.6102 59.741 12.6148C59.7745 12.7414 59.8285 12.8621 59.8846 12.9815C59.5861 12.8565 59.2654 12.7476 58.9319 12.6486C58.9401 12.6261 58.9505 12.6037 58.958 12.581Z" fill="url(#paint0_linear)"/>
<path fill-rule="evenodd" clip-rule="evenodd" d="M57.9695 2.19153C57.1244 2.19153 56.3516 2.4212 55.7507 2.80639C55.2634 2.60583 54.7047 2.4905 54.1127 2.4905C53.8212 2.4905 53.5413 2.52306 53.2709 2.57511C53.8817 2.97721 54.4579 3.39758 54.9872 3.8274C57.3468 4.05229 59.1767 5.6792 59.1767 7.65759C59.1767 8.08885 59.0892 8.50569 58.9287 8.89296C59.2722 9.79737 59.4573 10.7278 59.4573 11.6796C59.4573 11.6832 59.4573 11.6871 59.4573 11.6909C60.3867 12.3955 60.9648 13.3967 60.9648 14.5113C60.9648 16.6242 58.8761 18.3445 56.2858 18.3754C56.2069 18.454 56.1259 18.5343 56.0444 18.6123C56.2465 18.9993 56.3576 19.4167 56.3576 19.8476C56.3576 21.9798 53.6805 23.706 50.3735 23.706C50.0793 23.706 49.7884 23.693 49.5056 23.6665C48.998 25.5334 45.9885 26.9665 42.3534 26.9665C41.0845 26.9665 39.892 26.7939 38.8556 26.487C38.1645 27.174 37.1759 27.6759 36.043 27.8803C37.3157 28.477 38.9803 28.8336 40.8068 28.8336C43.6315 28.8336 46.0723 27.969 47.2607 26.707C47.4227 26.7011 47.5847 26.6904 47.7436 26.6788C48.1904 26.8445 48.6853 26.9439 49.2119 26.9439C50.6556 26.9439 51.8905 26.2465 52.4095 25.2573C52.4962 25.1993 52.5771 25.1431 52.6575 25.0824C52.8468 25.1077 53.0398 25.1276 53.2383 25.1276C53.5381 25.1276 53.8288 25.0937 54.1062 25.0373C54.4915 25.7175 55.2147 26.1768 56.0444 26.1768C56.9458 26.1768 57.7208 25.6356 58.0739 24.8568C58.2672 24.8824 58.4648 24.8963 58.6677 24.8963C59.328 24.8963 59.9439 24.7527 60.4688 24.507C60.8683 24.8863 61.4052 25.1163 61.9958 25.1163C62.944 25.1163 63.7532 24.5164 64.0775 23.6722C64.1708 23.6807 64.263 23.6891 64.3582 23.6891C64.5927 23.6891 64.8219 23.6598 65.0434 23.6102C65.4155 23.8909 65.8749 24.0558 66.3746 24.0558C67.2956 24.0558 68.0884 23.4911 68.4302 22.685C68.9546 22.9369 69.5722 23.0799 70.2313 23.0799C71.5763 23.0799 72.7387 22.4788 73.3115 21.5963C73.7117 21.7237 74.1519 21.7938 74.6101 21.7938C76.5214 21.7938 78.0687 20.5742 78.0687 19.0692C78.0687 18.8909 78.045 18.7189 78.0035 18.5502C78.2699 18.1641 78.4211 17.7231 78.4211 17.2528C78.4211 16.3743 77.8899 15.5963 77.0703 15.098C77.1499 14.8686 77.1943 14.6252 77.1943 14.3759C77.1943 12.8709 75.6404 11.6514 73.7291 11.6514C73.56 11.6514 73.3957 11.6667 73.2332 11.6852C73.2999 11.4798 73.3376 11.269 73.3376 11.0478C73.3376 9.58457 71.7903 8.39655 69.8789 8.39655C69.8237 8.39655 69.7704 8.40025 69.7158 8.40219C69.3298 7.7245 68.6055 7.26836 67.7776 7.26836C67.4542 7.26836 67.1481 7.34053 66.8706 7.46579C66.0138 6.19684 63.9472 5.2384 61.415 4.98378C61.4186 4.93487 61.4281 4.8867 61.4281 4.83712C61.4281 3.3739 59.8808 2.19152 57.9695 2.19152V2.19153ZM66.6813 12.0632C66.8104 12.3011 66.9876 12.5206 67.1969 12.7175C67.0048 12.6955 66.8069 12.6804 66.6095 12.6667C66.6606 12.4856 66.6813 12.3011 66.6813 12.1083C66.6813 12.0931 66.6817 12.0783 66.6813 12.0632Z" fill="url(#paint1_linear)"/>
<path fill-rule="evenodd" clip-rule="evenodd" d="M34.5339 22.8256C34.8369 22.8256 35.1197 22.9017 35.3596 23.0301H35.3805C36.2209 23.0301 36.9087 23.5999 36.9508 24.3173C36.9522 24.3405 36.9508 24.3641 36.9508 24.3875C36.9508 24.5841 36.9007 24.7703 36.8139 24.9389C36.9813 25.1548 37.0784 25.4132 37.0784 25.6928C37.0784 25.7162 37.0798 25.7398 37.0784 25.7629C37.0363 26.4804 36.3485 27.0502 35.5081 27.0502C35.425 27.0502 35.3441 27.0448 35.2645 27.0341C35.0181 27.1731 34.7227 27.2547 34.4063 27.2547C34.0999 27.2547 33.813 27.1793 33.5713 27.0481C33.5405 27.0498 33.5097 27.0502 33.4785 27.0502C32.611 27.0502 31.9059 26.4427 31.9059 25.6928C31.9059 25.4952 31.957 25.3083 32.0451 25.1394C31.8772 24.924 31.7783 24.6669 31.7783 24.3875C31.7783 23.6376 32.4834 23.0301 33.3509 23.0301C33.4568 23.0301 33.5596 23.039 33.6594 23.0562C33.9097 22.9106 34.2096 22.8256 34.5339 22.8256L34.5339 22.8256Z" fill="url(#paint2_linear)" stroke="black" stroke-width="1.06631"/>
<path fill-rule="evenodd" clip-rule="evenodd" d="M34.9304 23.259C35.2334 23.259 35.5162 23.3351 35.7561 23.4636H35.777C36.6174 23.4636 37.3052 24.0333 37.3473 24.7508C37.3487 24.7739 37.3473 24.7975 37.3473 24.8209C37.3473 25.0175 37.2972 25.2037 37.2104 25.3723C37.3778 25.5882 37.4748 25.8466 37.4748 26.1262C37.4748 26.1496 37.4763 26.1732 37.4748 26.1964C37.4328 26.9138 36.7449 27.4836 35.9045 27.4836C35.8215 27.4836 35.7406 27.4782 35.661 27.4675C35.4145 27.6066 35.1192 27.6881 34.8028 27.6881C34.4964 27.6881 34.2095 27.6127 33.9678 27.4816C33.937 27.4832 33.9062 27.4836 33.875 27.4836C33.0075 27.4836 32.3024 26.8761 32.3024 26.1262C32.3024 25.9287 32.3535 25.7417 32.4415 25.5728C32.2737 25.3575 32.1748 25.1003 32.1748 24.8209C32.1748 24.071 32.8799 23.4635 33.7474 23.4635C33.8533 23.4635 33.9561 23.4725 34.0559 23.4896C34.3062 23.3441 34.606 23.259 34.9304 23.259L34.9304 23.259Z" fill="url(#paint3_linear)"/>
<path fill-rule="evenodd" clip-rule="evenodd" d="M51.8869 22.7276C52.1899 22.7276 52.4727 22.8037 52.7126 22.9321H52.7335C53.5739 22.9321 54.2617 23.5019 54.3038 24.2193C54.3053 24.2425 54.3038 24.2661 54.3038 24.2895C54.3038 24.4861 54.2538 24.6723 54.167 24.8409C54.3344 25.0567 54.4314 25.3151 54.4314 25.5947C54.4314 25.6182 54.4328 25.6418 54.4314 25.6649C54.3893 26.3823 53.7015 26.9521 52.8611 26.9521C52.7781 26.9521 52.6971 26.9467 52.6175 26.9361C52.3711 27.0751 52.0757 27.1566 51.7593 27.1566C51.4529 27.1566 51.166 27.0812 50.9243 26.9501C50.8936 26.9517 50.8628 26.9521 50.8315 26.9521C49.964 26.9521 49.2589 26.3446 49.2589 25.5947C49.2589 25.3972 49.31 25.2103 49.3981 25.0414C49.2303 24.826 49.1313 24.5689 49.1313 24.2895C49.1313 23.5396 49.8365 22.9321 50.704 22.9321C50.8099 22.9321 50.9126 22.941 51.0125 22.9582C51.2627 22.8126 51.5626 22.7276 51.8869 22.7276L51.8869 22.7276Z" fill="url(#paint4_linear)" stroke="black" stroke-width="1.06631"/>
<path fill-rule="evenodd" clip-rule="evenodd" d="M52.2839 23.161C52.5869 23.161 52.8697 23.2371 53.1096 23.3655H53.1305C53.9709 23.3655 54.6587 23.9353 54.7008 24.6527C54.7023 24.6759 54.7008 24.6995 54.7008 24.7229C54.7008 24.9195 54.6507 25.1057 54.5639 25.2743C54.7313 25.4902 54.8284 25.7486 54.8284 26.0282C54.8284 26.0516 54.8298 26.0752 54.8284 26.0983C54.7863 26.8158 54.0985 27.3855 53.2581 27.3855C53.175 27.3855 53.0941 27.3801 53.0145 27.3695C52.7681 27.5085 52.4727 27.5901 52.1563 27.5901C51.8499 27.5901 51.563 27.5147 51.3213 27.3835C51.2905 27.3852 51.2597 27.3855 51.2285 27.3855C50.361 27.3855 49.6559 26.778 49.6559 26.0282C49.6559 25.8306 49.707 25.6437 49.7951 25.4748C49.6272 25.2594 49.5283 25.0023 49.5283 24.7229C49.5283 23.973 50.2334 23.3655 51.1009 23.3655C51.2068 23.3655 51.3096 23.3744 51.4094 23.3916C51.6597 23.246 51.9596 23.161 52.2839 23.161L52.2839 23.161Z" fill="url(#paint5_linear)"/>
<path fill-rule="evenodd" clip-rule="evenodd" d="M74.6353 14.3186C75.1028 14.3186 75.5391 14.436 75.9092 14.6341H75.9414C77.2379 14.6341 78.2991 15.5131 78.364 16.6199C78.3662 16.6556 78.364 16.692 78.364 16.7282C78.364 17.0314 78.2868 17.3187 78.1529 17.5788C78.4111 17.9118 78.5608 18.3105 78.5608 18.7418C78.5608 18.778 78.563 18.8144 78.5608 18.8501C78.4959 19.9568 77.4348 20.8359 76.1383 20.8359C76.0102 20.8359 75.8853 20.8276 75.7625 20.8111C75.3823 21.0256 74.9266 21.1514 74.4385 21.1514C73.9658 21.1514 73.5233 21.0351 73.1503 20.8328C73.1029 20.8353 73.0554 20.8359 73.0072 20.8359C71.6689 20.8359 70.5811 19.8987 70.5811 18.7418C70.5811 18.4371 70.6599 18.1487 70.7958 17.8881C70.5369 17.5559 70.3843 17.1592 70.3843 16.7281C70.3843 15.5713 71.4721 14.6341 72.8104 14.6341C72.9738 14.6341 73.1323 14.6478 73.2863 14.6743C73.6724 14.4497 74.135 14.3186 74.6353 14.3186L74.6353 14.3186Z" fill="url(#paint6_linear)" stroke="black" stroke-width="1.64503"/>
<path fill-rule="evenodd" clip-rule="evenodd" d="M75.2472 14.9873C75.7146 14.9873 76.1509 15.1046 76.521 15.3028H76.5533C77.8498 15.3028 78.9109 16.1818 78.9758 17.2886C78.9781 17.3243 78.9758 17.3607 78.9758 17.3968C78.9758 17.7001 78.8986 17.9873 78.7647 18.2475C79.0229 18.5805 79.1726 18.9791 79.1726 19.4105C79.1726 19.4466 79.1749 19.483 79.1726 19.5187C79.1077 20.6255 78.0466 21.5046 76.7501 21.5046C76.622 21.5046 76.4971 21.4962 76.3743 21.4798C75.9941 21.6943 75.5384 21.82 75.0504 21.82C74.5776 21.82 74.1351 21.7038 73.7622 21.5015C73.7147 21.504 73.6672 21.5045 73.619 21.5045C72.2807 21.5045 71.1929 20.5673 71.1929 19.4105C71.1929 19.1057 71.2717 18.8174 71.4076 18.5568C71.1487 18.2245 70.9961 17.8278 70.9961 17.3968C70.9961 16.24 72.0839 15.3027 73.4222 15.3027C73.5856 15.3027 73.7441 15.3165 73.8981 15.343C74.2842 15.1184 74.7468 14.9872 75.2472 14.9872L75.2472 14.9873Z" fill="url(#paint7_linear)"/>
<path fill-rule="evenodd" clip-rule="evenodd" d="M64.1431 10.6228C64.4645 10.6228 64.7643 10.7035 65.0187 10.8397H65.0409C65.932 10.8397 66.6614 11.4439 66.706 12.2046C66.7074 12.2292 66.706 12.2542 66.706 12.279C66.706 12.4875 66.6529 12.6849 66.5609 12.8637C66.7384 13.0926 66.8412 13.3666 66.8412 13.6631C66.8412 13.6879 66.8427 13.713 66.8412 13.7375C66.7966 14.4982 66.0673 15.1024 65.1761 15.1024C65.0881 15.1024 65.0023 15.0967 64.9179 15.0854C64.6565 15.2328 64.3433 15.3193 64.0079 15.3193C63.6829 15.3193 63.3787 15.2394 63.1224 15.1003C63.0898 15.1021 63.0571 15.1024 63.024 15.1024C62.1041 15.1024 61.3565 14.4582 61.3565 13.6631C61.3565 13.4536 61.4106 13.2554 61.504 13.0763C61.3261 12.8479 61.2212 12.5753 61.2212 12.279C61.2212 11.4839 61.9689 10.8397 62.8888 10.8397C63.0011 10.8397 63.11 10.8491 63.2159 10.8673C63.4813 10.713 63.7992 10.6228 64.1431 10.6228L64.1431 10.6228Z" fill="url(#paint8_linear)" stroke="black" stroke-width="1.1307"/>
<path opacity="0.8025" fill-rule="evenodd" clip-rule="evenodd" d="M64.9141 11.3852C65.2354 11.3852 65.5353 11.4659 65.7897 11.6021H65.8119C66.703 11.6021 67.4324 12.2063 67.477 12.967C67.4784 12.9915 67.477 13.0166 67.477 13.0414C67.477 13.2499 67.4239 13.4473 67.3319 13.6261C67.5094 13.855 67.6122 14.129 67.6122 14.4255C67.6122 14.4503 67.6137 14.4754 67.6122 14.4999C67.5676 15.2606 66.8383 15.8648 65.9471 15.8648C65.8591 15.8648 65.7733 15.8591 65.6889 15.8478C65.4275 15.9952 65.1143 16.0817 64.7789 16.0817C64.4539 16.0817 64.1497 16.0017 63.8934 15.8627C63.8608 15.8645 63.8281 15.8648 63.795 15.8648C62.8751 15.8648 62.1275 15.2206 62.1275 14.4255C62.1275 14.216 62.1816 14.0178 62.275 13.8387C62.0971 13.6103 61.9922 13.3377 61.9922 13.0414C61.9922 12.2462 62.7399 11.6021 63.6598 11.6021C63.772 11.6021 63.881 11.6115 63.9869 11.6297C64.2523 11.4754 64.5702 11.3852 64.9141 11.3852L64.9141 11.3852Z" fill="url(#paint9_linear)"/>
<path fill-rule="evenodd" clip-rule="evenodd" d="M7.40106 16.6718C7.70409 16.6718 7.9869 16.7479 8.22679 16.8763H8.24768C9.08808 16.8763 9.7759 17.4461 9.81797 18.1636C9.81943 18.1867 9.81797 18.2103 9.81797 18.2337C9.81797 18.4303 9.76792 18.6165 9.68112 18.7851C9.84852 19.001 9.94555 19.2594 9.94555 19.539C9.94555 19.5624 9.94701 19.586 9.94555 19.6092C9.90348 20.3266 9.21565 20.8964 8.37525 20.8964C8.29221 20.8964 8.21129 20.891 8.1317 20.8803C7.88524 21.0194 7.58986 21.1009 7.27349 21.1009C6.96707 21.1009 6.6802 21.0255 6.43847 20.8944C6.40773 20.896 6.37691 20.8964 6.34569 20.8964C5.47819 20.8964 4.77308 20.2889 4.77308 19.539C4.77308 19.3415 4.82418 19.1545 4.91225 18.9856C4.74441 18.7702 4.64551 18.5131 4.64551 18.2337C4.64551 17.4838 5.35062 16.8763 6.21812 16.8763C6.32402 16.8763 6.4268 16.8853 6.52661 16.9024C6.7769 16.7568 7.07675 16.6718 7.40106 16.6718L7.40106 16.6718Z" fill="url(#paint10_linear)" stroke="black" stroke-width="1.06631"/>
<path fill-rule="evenodd" clip-rule="evenodd" d="M7.79803 17.1053C8.10106 17.1053 8.38387 17.1814 8.62377 17.3098H8.64465C9.48505 17.3098 10.1729 17.8796 10.2149 18.597C10.2164 18.6202 10.2149 18.6438 10.2149 18.6672C10.2149 18.8638 10.1649 19.05 10.0781 19.2186C10.2455 19.4344 10.3425 19.6928 10.3425 19.9724C10.3425 19.9959 10.344 20.0195 10.3425 20.0426C10.3004 20.76 9.61262 21.3298 8.77222 21.3298C8.68919 21.3298 8.60826 21.3244 8.52868 21.3138C8.28222 21.4528 7.98683 21.5343 7.67046 21.5343C7.36404 21.5343 7.07717 21.4589 6.83545 21.3278C6.8047 21.3294 6.77389 21.3298 6.74267 21.3298C5.87516 21.3298 5.17005 20.7223 5.17005 19.9724C5.17005 19.7749 5.22115 19.588 5.30922 19.4191C5.14138 19.2037 5.04248 18.9466 5.04248 18.6672C5.04248 17.9173 5.74759 17.3098 6.61509 17.3098C6.72099 17.3098 6.82377 17.3187 6.92359 17.3359C7.17387 17.1903 7.47373 17.1053 7.79804 17.1053L7.79803 17.1053Z" fill="url(#paint11_linear)"/>
<path fill-rule="evenodd" clip-rule="evenodd" d="M23.5148 17.5802C23.8179 17.5802 24.1007 17.6563 24.3406 17.7847H24.3614C25.2018 17.7847 25.8897 18.3545 25.9317 19.0719C25.9332 19.0951 25.9317 19.1187 25.9317 19.1421C25.9317 19.3387 25.8817 19.5249 25.7949 19.6935C25.9623 19.9093 26.0593 20.1677 26.0593 20.4473C26.0593 20.4708 26.0608 20.4944 26.0593 20.5175C26.0172 21.2349 25.3294 21.8047 24.489 21.8047C24.406 21.8047 24.3251 21.7993 24.2455 21.7887C23.999 21.9277 23.7036 22.0092 23.3873 22.0092C23.0808 22.0092 22.794 21.9338 22.5522 21.8027C22.5215 21.8043 22.4907 21.8047 22.4595 21.8047C21.592 21.8047 20.8868 21.1972 20.8868 20.4473C20.8868 20.2498 20.9379 20.0629 21.026 19.894C20.8582 19.6786 20.7593 19.4215 20.7593 19.1421C20.7593 18.3922 21.4644 17.7847 22.3319 17.7847C22.4378 17.7847 22.5406 17.7936 22.6404 17.8108C22.8907 17.6652 23.1905 17.5802 23.5148 17.5802L23.5148 17.5802Z" fill="url(#paint12_linear)" stroke="black" stroke-width="1.06631"/>
<path fill-rule="evenodd" clip-rule="evenodd" d="M23.9113 18.0136C24.2143 18.0136 24.4971 18.0897 24.737 18.2181H24.7579C25.5983 18.2181 26.2862 18.7879 26.3282 19.5053C26.3297 19.5285 26.3282 19.5521 26.3282 19.5755C26.3282 19.7721 26.2782 19.9583 26.1914 20.1269C26.3588 20.3427 26.4558 20.6011 26.4558 20.8807C26.4558 20.9042 26.4573 20.9278 26.4558 20.9509C26.4137 21.6683 25.7259 22.2381 24.8855 22.2381C24.8025 22.2381 24.7215 22.2327 24.642 22.2221C24.3955 22.3611 24.1001 22.4426 23.7837 22.4426C23.4773 22.4426 23.1905 22.3673 22.9487 22.2361C22.918 22.2377 22.8872 22.2381 22.8559 22.2381C21.9884 22.2381 21.2833 21.6306 21.2833 20.8807C21.2833 20.6832 21.3344 20.4963 21.4225 20.3274C21.2547 20.112 21.1558 19.8549 21.1558 19.5755C21.1558 18.8256 21.8609 18.2181 22.7284 18.2181C22.8343 18.2181 22.9371 18.227 23.0369 18.2442C23.2872 18.0986 23.587 18.0136 23.9113 18.0136L23.9113 18.0136Z" fill="url(#paint13_linear)"/>
<path fill-rule="evenodd" clip-rule="evenodd" d="M57.843 15.8952C58.1485 15.8952 58.4336 15.9429 58.6755 16.0234H58.6965C59.5438 16.0234 60.2372 16.3808 60.2796 16.8307C60.2811 16.8453 60.2796 16.8601 60.2796 16.8748C60.2796 16.998 60.2292 17.1148 60.1416 17.2206C60.3104 17.356 60.4082 17.518 60.4082 17.6934C60.4082 17.7081 60.4097 17.7229 60.4082 17.7374C60.3658 18.1873 59.6724 18.5447 58.8251 18.5447C58.7414 18.5447 58.6598 18.5413 58.5796 18.5347C58.3311 18.6219 58.0333 18.673 57.7144 18.673C57.4055 18.673 57.1162 18.6257 56.8725 18.5435C56.8415 18.5445 56.8105 18.5447 56.779 18.5447C55.9044 18.5447 55.1936 18.1637 55.1936 17.6934C55.1936 17.5695 55.2451 17.4523 55.3339 17.3463C55.1647 17.2113 55.0649 17.05 55.0649 16.8748C55.0649 16.4045 55.7758 16.0234 56.6504 16.0234C56.7572 16.0234 56.8608 16.029 56.9614 16.0398C57.2137 15.9485 57.516 15.8952 57.843 15.8952L57.843 15.8952Z" fill="url(#paint14_linear)" stroke="black" stroke-width="0.8479"/>
<path fill-rule="evenodd" clip-rule="evenodd" d="M58.2424 16.167C58.5479 16.167 58.833 16.2147 59.0749 16.2952H59.0959C59.9432 16.2952 60.6366 16.6526 60.679 17.1026C60.6805 17.1171 60.679 17.1319 60.679 17.1466C60.679 17.2698 60.6286 17.3866 60.5411 17.4924C60.7098 17.6278 60.8076 17.7898 60.8076 17.9652C60.8076 17.9799 60.8091 17.9947 60.8076 18.0092C60.7652 18.4592 60.0718 18.8165 59.2245 18.8165C59.1408 18.8165 59.0592 18.8131 58.979 18.8064C58.7305 18.8936 58.4327 18.9448 58.1138 18.9448C57.8049 18.9448 57.5156 18.8975 57.2719 18.8152C57.241 18.8163 57.2099 18.8165 57.1784 18.8165C56.3038 18.8165 55.593 18.4355 55.593 17.9652C55.593 17.8413 55.6445 17.7241 55.7333 17.6181C55.5641 17.4831 55.4644 17.3218 55.4644 17.1466C55.4644 16.6762 56.1752 16.2952 57.0498 16.2952C57.1566 16.2952 57.2602 16.3008 57.3608 16.3116C57.6131 16.2203 57.9154 16.167 58.2424 16.167L58.2424 16.167Z" fill="url(#paint15_linear)"/>
<path fill-rule="evenodd" clip-rule="evenodd" d="M17.8972 10.4526C18.2027 10.4526 18.4878 10.5003 18.7297 10.5809H18.7507C19.598 10.5809 20.2914 10.9382 20.3338 11.3882C20.3353 11.4027 20.3338 11.4175 20.3338 11.4322C20.3338 11.5555 20.2834 11.6722 20.1958 11.778C20.3646 11.9134 20.4624 12.0754 20.4624 12.2508C20.4624 12.2655 20.4639 12.2803 20.4624 12.2948C20.42 12.7448 19.7266 13.1021 18.8793 13.1021C18.7956 13.1021 18.714 13.0987 18.6338 13.0921C18.3853 13.1793 18.0875 13.2304 17.7686 13.2304C17.4596 13.2304 17.1704 13.1831 16.9267 13.1009C16.8957 13.102 16.8647 13.1021 16.8332 13.1021C15.9586 13.1021 15.2478 12.7211 15.2478 12.2508C15.2478 12.1269 15.2993 12.0097 15.3881 11.9037C15.2189 11.7687 15.1191 11.6074 15.1191 11.4322C15.1191 10.9619 15.83 10.5809 16.7046 10.5809C16.8114 10.5809 16.915 10.5865 17.0156 10.5972C17.2679 10.5059 17.5702 10.4526 17.8972 10.4526L17.8972 10.4526Z" fill="url(#paint16_linear)" stroke="black" stroke-width="0.8479"/>
<path fill-rule="evenodd" clip-rule="evenodd" d="M18.2976 10.7244C18.6031 10.7244 18.8882 10.7721 19.13 10.8527H19.1511C19.9983 10.8527 20.6918 11.21 20.7342 11.66C20.7357 11.6745 20.7342 11.6893 20.7342 11.704C20.7342 11.8273 20.6837 11.944 20.5962 12.0498C20.765 12.1852 20.8628 12.3472 20.8628 12.5226C20.8628 12.5373 20.8643 12.5521 20.8628 12.5666C20.8204 13.0166 20.127 13.3739 19.2797 13.3739C19.196 13.3739 19.1144 13.3706 19.0342 13.3639C18.7857 13.4511 18.4879 13.5022 18.169 13.5022C17.86 13.5022 17.5708 13.4549 17.3271 13.3727C17.2961 13.3737 17.2651 13.3739 17.2336 13.3739C16.359 13.3739 15.6481 12.9929 15.6481 12.5226C15.6481 12.3987 15.6997 12.2815 15.7884 12.1755C15.6192 12.0405 15.5195 11.8792 15.5195 11.704C15.5195 11.2337 16.2304 10.8527 17.105 10.8527C17.2117 10.8527 17.3154 10.8583 17.416 10.869C17.6683 10.7777 17.9706 10.7244 18.2976 10.7244L18.2976 10.7244Z" fill="url(#paint17_linear)"/>
<path fill-rule="evenodd" clip-rule="evenodd" d="M43.9648 13.4342C44.4355 13.4342 44.8748 13.5078 45.2474 13.6319H45.2799C46.5853 13.6319 47.6537 14.1825 47.719 14.8757C47.7213 14.8981 47.719 14.9209 47.719 14.9435C47.719 15.1335 47.6413 15.3134 47.5065 15.4763C47.7665 15.6849 47.9172 15.9346 47.9172 16.2048C47.9172 16.2275 47.9194 16.2503 47.9172 16.2726C47.8518 16.9659 46.7834 17.5165 45.478 17.5165C45.3491 17.5165 45.2233 17.5113 45.0997 17.501C44.7169 17.6353 44.2581 17.7141 43.7667 17.7141C43.2907 17.7141 42.8451 17.6413 42.4696 17.5146C42.4219 17.5162 42.374 17.5165 42.3255 17.5165C40.978 17.5165 39.8827 16.9295 39.8827 16.2048C39.8827 16.014 39.9621 15.8333 40.0989 15.6701C39.8382 15.462 39.6846 15.2135 39.6846 14.9435C39.6846 14.2189 40.7798 13.6319 42.1273 13.6319C42.2918 13.6319 42.4515 13.6405 42.6065 13.6571C42.9953 13.5164 43.4611 13.4343 43.9648 13.4343L43.9648 13.4342Z" fill="url(#paint18_linear)" stroke="black" stroke-width="1.3064"/>
<path fill-rule="evenodd" clip-rule="evenodd" d="M44.581 13.8531C45.0517 13.8531 45.491 13.9266 45.8636 14.0507H45.8961C47.2015 14.0507 48.2699 14.6013 48.3352 15.2946C48.3375 15.3169 48.3352 15.3397 48.3352 15.3624C48.3352 15.5523 48.2575 15.7323 48.1227 15.8952C48.3827 16.1038 48.5334 16.3535 48.5334 16.6237C48.5334 16.6463 48.5357 16.6691 48.5334 16.6915C48.4681 17.3847 47.3996 17.9353 46.0942 17.9353C45.9653 17.9353 45.8396 17.9301 45.7159 17.9198C45.3331 18.0542 44.8743 18.1329 44.3829 18.1329C43.9069 18.1329 43.4613 18.0601 43.0858 17.9334C43.0381 17.935 42.9902 17.9353 42.9417 17.9353C41.5942 17.9353 40.4989 17.3483 40.4989 16.6237C40.4989 16.4328 40.5783 16.2522 40.7151 16.0889C40.4544 15.8808 40.3008 15.6323 40.3008 15.3624C40.3008 14.6377 41.396 14.0507 42.7435 14.0507C42.908 14.0507 43.0677 14.0593 43.2227 14.0759C43.6115 13.9352 44.0773 13.8531 44.581 13.8531H44.581Z" fill="url(#paint19_linear)"/>
<path fill-rule="evenodd" clip-rule="evenodd" d="M22.1193 2.17343C22.9644 2.17343 23.7371 2.4031 24.338 2.78829C24.8253 2.58773 25.384 2.4724 25.976 2.4724C27.8873 2.4724 29.4346 3.66041 29.4346 5.12363C29.4346 5.41036 29.375 5.6886 29.265 5.94721C29.8042 6.41439 30.1329 7.02346 30.1329 7.6959C30.1329 7.92332 30.0923 8.14527 30.022 8.35589C30.3319 8.43292 30.6187 8.54054 30.8833 8.67742C31.3995 8.88152 31.8449 9.17455 32.1689 9.54048C32.1695 9.54066 32.1683 9.5459 32.1689 9.54612C32.4916 9.65064 32.7955 9.76648 33.0825 9.89585C33.6293 8.80168 34.6729 8.00786 35.9147 7.81999C36.5578 7.31838 37.3569 7.01898 38.2313 7.01898C39.0578 7.01898 39.8257 7.28257 40.4501 7.73538C41.0289 7.37622 41.7054 7.16564 42.4339 7.16564C44.4184 7.16564 46.0455 8.70598 46.2254 10.6687C46.5778 10.5597 46.9536 10.4994 47.3413 10.4994C48.5116 10.4994 49.5592 11.0348 50.2583 11.8758C50.4512 11.8676 50.6486 11.8589 50.8456 11.8589C51.4596 11.8589 52.0514 11.9004 52.6206 11.9774C53.2791 10.8218 54.5108 10.0425 55.9226 10.0425C57.5245 10.0425 58.8958 11.0442 59.4596 12.4625C60.0589 11.1263 61.3815 10.1948 62.9247 10.1948C64.0889 10.1948 65.1296 10.7266 65.8287 11.5599C66.2832 11.366 66.7793 11.2553 67.3035 11.2553C68.8776 11.2553 70.233 12.2227 70.8144 13.602C71.3787 13.2673 72.0318 13.0717 72.7329 13.0717C74.1473 13.0717 75.3838 13.8532 76.0415 15.0122C76.3156 14.8905 76.6236 14.8204 76.942 14.8204C78.1759 14.8204 79.1738 15.8325 79.1738 17.0824C79.1738 18.3323 78.1759 19.3444 76.942 19.3444C76.5675 19.3444 76.2079 19.2555 75.8979 19.0906C75.8846 19.1105 75.8658 19.1274 75.8522 19.147C75.5598 19.8732 74.9055 20.4092 74.1164 20.529C73.688 20.6979 73.2202 20.7941 72.7329 20.7941C72.0479 20.7941 71.409 20.607 70.8535 20.2865C70.5845 21.2303 69.7249 21.9223 68.7065 21.9223C68.5431 21.9223 68.3836 21.9053 68.2302 21.8716C67.7468 22.0736 67.2099 22.1874 66.6444 22.1874C66.1657 22.1874 65.7097 22.1034 65.2871 21.9562C64.8931 22.3109 64.3748 22.5259 63.8057 22.5259C63.0966 22.5259 62.4661 22.1904 62.0568 21.6685C61.1374 23.0983 58.6929 24.1483 55.7595 24.2633C55.3742 24.9435 54.651 25.4028 53.8213 25.4028C53.0774 25.4028 52.4197 25.0328 52.0137 24.4664C51.8024 24.6609 51.5653 24.8481 51.2959 25.0192C51.1227 26.0945 50.2006 26.9145 49.0902 26.9145C48.4856 26.9145 47.9392 26.6723 47.537 26.2771L47.4783 26.2828C47.1419 27.1011 46.3459 27.6761 45.4162 27.6761C45.1492 27.6761 44.89 27.6277 44.6527 27.5407C43.3301 28.3244 41.4126 28.8155 39.282 28.8155C36.4573 28.8155 34.0165 27.9509 32.828 26.6889C32.666 26.6829 32.504 26.6723 32.3451 26.6607C31.8983 26.8264 31.4034 26.9258 30.8768 26.9258C29.4332 26.9258 28.1982 26.2283 27.6792 25.2392C27.5926 25.1812 27.5116 25.125 27.4312 25.0643C27.2419 25.0896 27.0489 25.1094 26.8504 25.1094C26.5507 25.1094 26.2599 25.0756 25.9825 25.0192C25.5972 25.6994 24.8741 26.1587 24.0444 26.1587C23.1429 26.1587 22.368 25.6175 22.0149 24.8387C21.8216 24.8643 21.6239 24.8782 21.421 24.8782C20.7608 24.8782 20.1449 24.7346 19.6199 24.4889C19.2204 24.8682 18.6836 25.0982 18.0929 25.0982C17.1447 25.0982 16.3355 24.4983 16.0112 23.6541C15.918 23.6625 15.8258 23.671 15.7306 23.671C15.496 23.671 15.2668 23.6416 15.0454 23.592C14.6732 23.8728 14.2138 24.0377 13.7141 24.0377C12.7932 24.0377 12.0004 23.473 11.6585 22.6669C11.1342 22.9187 10.5165 23.0618 9.85741 23.0618C8.5124 23.0618 7.35002 22.4607 6.77726 21.5782C6.37705 21.7055 5.9368 21.7756 5.47864 21.7756C3.56731 21.7756 2.02 20.5561 2.02 19.0511C2.02 18.8728 2.04375 18.7008 2.08526 18.5321C1.81887 18.146 1.66761 17.705 1.66761 17.2347C1.66761 16.3562 2.19883 15.5782 3.01844 15.0799C2.93886 14.8505 2.89445 14.607 2.89445 14.3578C2.89445 12.8528 4.44829 11.6333 6.35962 11.6333C6.52869 11.6333 6.69299 11.6486 6.85557 11.6671C6.78883 11.4617 6.75116 11.2509 6.75116 11.0297C6.75116 9.56645 8.29847 8.37843 10.2098 8.37843C10.2651 8.37843 10.3183 8.38212 10.3729 8.38407C10.7589 7.70638 11.4833 7.25024 12.3111 7.25024C12.6345 7.25024 12.9406 7.32241 13.2182 7.44767C14.0749 6.17872 16.1416 5.22028 18.6737 4.96566C18.6702 4.91675 18.6606 4.86858 18.6606 4.819C18.6606 3.35578 20.208 2.1734 22.1193 2.1734V2.17343ZM13.4074 12.0451C13.2784 12.2829 13.1011 12.5025 12.8919 12.6994C13.084 12.6774 13.2818 12.6623 13.4792 12.6486C13.4281 12.4675 13.4074 12.283 13.4074 12.0902C13.4074 12.075 13.407 12.0602 13.4074 12.0451ZM21.0425 12.5809C20.7861 12.6004 20.5238 12.6101 20.2594 12.6148C20.226 12.7414 20.172 12.8621 20.1159 12.9815C20.4144 12.8565 20.7351 12.7476 21.0686 12.6486C21.0604 12.6261 21.05 12.6037 21.0425 12.5809Z" fill="url(#paint20_linear)"/>
<path fill-rule="evenodd" clip-rule="evenodd" d="M22.0305 2.19152C22.8756 2.19152 23.6484 2.4212 24.2493 2.80638C24.7366 2.60583 25.2953 2.49049 25.8873 2.49049C26.1788 2.49049 26.4587 2.52306 26.7291 2.57511C26.1183 2.9772 25.5421 3.39757 25.0128 3.82739C22.6532 4.05228 20.8233 5.6792 20.8233 7.65758C20.8233 8.08885 20.9108 8.50568 21.0713 8.89295C20.7278 9.79737 20.5427 10.7278 20.5427 11.6796C20.5427 11.6832 20.5427 11.6871 20.5427 11.6908C19.6133 12.3955 19.0352 13.3967 19.0352 14.5113C19.0352 16.6242 21.1239 18.3445 23.7142 18.3754C23.7931 18.454 23.8741 18.5343 23.9556 18.6123C23.7535 18.9993 23.6424 19.4166 23.6424 19.8476C23.6424 21.9798 26.3195 23.706 29.6265 23.706C29.9207 23.706 30.2116 23.693 30.4944 23.6665C31.002 25.5334 34.0115 26.9665 37.6466 26.9665C38.9155 26.9665 40.108 26.7939 41.1444 26.487C41.8355 27.1739 42.8241 27.6759 43.957 27.8803C42.6843 28.477 41.0197 28.8336 39.1932 28.8336C36.3685 28.8336 33.9277 27.969 32.7393 26.707C32.5773 26.701 32.4153 26.6904 32.2564 26.6788C31.8096 26.8445 31.3147 26.9439 30.7881 26.9439C29.3444 26.9439 28.1095 26.2465 27.5905 25.2573C27.5038 25.1993 27.4229 25.1431 27.3425 25.0824C27.1532 25.1077 26.9602 25.1275 26.7617 25.1275C26.4619 25.1275 26.1712 25.0937 25.8938 25.0373C25.5085 25.7175 24.7853 26.1768 23.9556 26.1768C23.0542 26.1768 22.2792 25.6356 21.9261 24.8568C21.7328 24.8824 21.5352 24.8963 21.3323 24.8963C20.672 24.8963 20.0561 24.7527 19.5312 24.507C19.1317 24.8863 18.5948 25.1163 18.0042 25.1163C17.056 25.1163 16.2468 24.5164 15.9225 23.6722C15.8292 23.6807 15.737 23.6891 15.6418 23.6891C15.4073 23.6891 15.1781 23.6597 14.9566 23.6101C14.5845 23.8909 14.1251 24.0558 13.6254 24.0558C12.7044 24.0558 11.9116 23.4911 11.5698 22.685C11.0454 22.9368 10.4278 23.0799 9.76868 23.0799C8.42366 23.0799 7.26129 22.4788 6.68853 21.5963C6.28831 21.7237 5.84806 21.7937 5.38991 21.7937C3.47858 21.7937 1.93126 20.5742 1.93126 19.0692C1.93126 18.8909 1.95501 18.7189 1.99652 18.5502C1.73014 18.1641 1.57887 17.7231 1.57887 17.2528C1.57887 16.3743 2.11009 15.5963 2.9297 15.098C2.85012 14.8686 2.80571 14.6252 2.80571 14.3759C2.80571 12.8709 4.35955 11.6514 6.27088 11.6514C6.43995 11.6514 6.60425 11.6667 6.76684 11.6852C6.70009 11.4798 6.66242 11.269 6.66242 11.0478C6.66242 9.58456 8.20974 8.39655 10.1211 8.39655C10.1763 8.39655 10.2296 8.40025 10.2842 8.40218C10.6702 7.7245 11.3945 7.26835 12.2224 7.26835C12.5458 7.26835 12.8519 7.34052 13.1294 7.46578C13.9862 6.19683 16.0528 5.23839 18.585 4.98377C18.5814 4.93486 18.5719 4.88669 18.5719 4.83711C18.5719 3.37389 20.1192 2.19151 22.0305 2.19151V2.19152ZM13.3187 12.0632C13.1896 12.301 13.0124 12.5206 12.8031 12.7175C12.9952 12.6955 13.1931 12.6804 13.3905 12.6667C13.3394 12.4856 13.3187 12.3011 13.3187 12.1083C13.3187 12.0931 13.3183 12.0783 13.3187 12.0632Z" fill="url(#paint21_linear)"/>
<path fill-rule="evenodd" clip-rule="evenodd" d="M45.4661 22.8256C45.1631 22.8256 44.8803 22.9017 44.6404 23.0301H44.6195C43.7791 23.0301 43.0913 23.5999 43.0492 24.3173C43.0478 24.3405 43.0492 24.3641 43.0492 24.3875C43.0492 24.5841 43.0993 24.7703 43.1861 24.9389C43.0187 25.1548 42.9216 25.4132 42.9216 25.6928C42.9216 25.7162 42.9202 25.7398 42.9216 25.7629C42.9637 26.4803 43.6515 27.0501 44.4919 27.0501C44.575 27.0501 44.6559 27.0448 44.7355 27.0341C44.9819 27.1731 45.2773 27.2546 45.5937 27.2546C45.9001 27.2546 46.187 27.1793 46.4287 27.0481C46.4595 27.0498 46.4903 27.0501 46.5215 27.0501C47.389 27.0501 48.0941 26.4426 48.0941 25.6928C48.0941 25.4952 48.043 25.3083 47.9549 25.1394C48.1228 24.924 48.2217 24.6669 48.2217 24.3875C48.2217 23.6376 47.5166 23.0301 46.6491 23.0301C46.5432 23.0301 46.4404 23.039 46.3406 23.0562C46.0903 22.9106 45.7904 22.8256 45.4661 22.8256L45.4661 22.8256Z" fill="url(#paint22_linear)" stroke="black" stroke-width="1.06631"/>
<path fill-rule="evenodd" clip-rule="evenodd" d="M45.0696 23.259C44.7666 23.259 44.4838 23.3351 44.2439 23.4636H44.223C43.3826 23.4636 42.6948 24.0333 42.6527 24.7508C42.6513 24.7739 42.6527 24.7975 42.6527 24.8209C42.6527 25.0175 42.7028 25.2037 42.7896 25.3723C42.6222 25.5882 42.5252 25.8466 42.5252 26.1262C42.5252 26.1496 42.5237 26.1732 42.5252 26.1964C42.5672 26.9138 43.2551 27.4836 44.0955 27.4836C44.1785 27.4836 44.2594 27.4782 44.339 27.4675C44.5855 27.6066 44.8808 27.6881 45.1972 27.6881C45.5036 27.6881 45.7905 27.6127 46.0322 27.4816C46.063 27.4832 46.0938 27.4836 46.125 27.4836C46.9925 27.4836 47.6976 26.8761 47.6976 26.1262C47.6976 25.9287 47.6465 25.7417 47.5585 25.5728C47.7263 25.3575 47.8252 25.1003 47.8252 24.8209C47.8252 24.071 47.1201 23.4635 46.2526 23.4635C46.1467 23.4635 46.0439 23.4725 45.9441 23.4896C45.6938 23.3441 45.394 23.259 45.0696 23.259L45.0696 23.259Z" fill="url(#paint23_linear)"/>
<path fill-rule="evenodd" clip-rule="evenodd" d="M28.1131 22.7276C27.8101 22.7276 27.5273 22.8037 27.2874 22.9321H27.2665C26.4261 22.9321 25.7383 23.5019 25.6962 24.2193C25.6947 24.2425 25.6962 24.2661 25.6962 24.2895C25.6962 24.4861 25.7462 24.6723 25.833 24.8409C25.6656 25.0567 25.5686 25.3151 25.5686 25.5947C25.5686 25.6182 25.5672 25.6418 25.5686 25.6649C25.6107 26.3823 26.2985 26.9521 27.1389 26.9521C27.2219 26.9521 27.3029 26.9467 27.3825 26.9361C27.6289 27.0751 27.9243 27.1566 28.2407 27.1566C28.5471 27.1566 28.834 27.0812 29.0757 26.9501C29.1064 26.9517 29.1372 26.9521 29.1685 26.9521C30.036 26.9521 30.7411 26.3446 30.7411 25.5947C30.7411 25.3972 30.69 25.2103 30.6019 25.0414C30.7697 24.826 30.8687 24.5689 30.8687 24.2895C30.8687 23.5396 30.1635 22.9321 29.296 22.9321C29.1901 22.9321 29.0874 22.941 28.9875 22.9582C28.7373 22.8126 28.4374 22.7276 28.1131 22.7276L28.1131 22.7276Z" fill="url(#paint24_linear)" stroke="black" stroke-width="1.06631"/>
<path fill-rule="evenodd" clip-rule="evenodd" d="M27.7161 23.161C27.4131 23.161 27.1303 23.2371 26.8904 23.3655H26.8695C26.0291 23.3655 25.3413 23.9353 25.2992 24.6527C25.2977 24.6759 25.2992 24.6995 25.2992 24.7229C25.2992 24.9195 25.3493 25.1057 25.4361 25.2743C25.2687 25.4901 25.1716 25.7485 25.1716 26.0281C25.1716 26.0516 25.1702 26.0752 25.1716 26.0983C25.2137 26.8157 25.9015 27.3855 26.7419 27.3855C26.825 27.3855 26.9059 27.3801 26.9855 27.3695C27.2319 27.5085 27.5273 27.59 27.8437 27.59C28.1501 27.59 28.437 27.5147 28.6787 27.3835C28.7095 27.3851 28.7403 27.3855 28.7715 27.3855C29.639 27.3855 30.3441 26.778 30.3441 26.0281C30.3441 25.8306 30.293 25.6437 30.2049 25.4748C30.3728 25.2594 30.4717 25.0023 30.4717 24.7229C30.4717 23.973 29.7666 23.3655 28.8991 23.3655C28.7932 23.3655 28.6904 23.3744 28.5906 23.3916C28.3403 23.246 28.0404 23.161 27.7161 23.161L27.7161 23.161Z" fill="url(#paint25_linear)"/>
<path fill-rule="evenodd" clip-rule="evenodd" d="M5.36467 14.3186C4.89717 14.3186 4.46087 14.4359 4.09077 14.6341H4.05856C2.76205 14.6341 1.70093 15.5131 1.63602 16.6199C1.63377 16.6556 1.63602 16.692 1.63602 16.7282C1.63602 17.0314 1.71323 17.3187 1.84714 17.5788C1.5889 17.9118 1.43921 18.3104 1.43921 18.7418C1.43921 18.7779 1.43696 18.8144 1.43921 18.8501C1.50411 19.9568 2.56524 20.8359 3.86175 20.8359C3.98985 20.8359 4.1147 20.8276 4.23747 20.8111C4.61769 21.0256 5.07339 21.1514 5.56146 21.1514C6.03418 21.1514 6.47675 21.0351 6.84966 20.8328C6.8971 20.8353 6.94464 20.8359 6.9928 20.8359C8.33113 20.8359 9.41892 19.8987 9.41892 18.7418C9.41892 18.4371 9.34009 18.1487 9.20421 17.8881C9.46314 17.5558 9.61572 17.1591 9.61572 16.7281C9.61572 15.5713 8.52793 14.6341 7.18961 14.6341C7.02623 14.6341 6.86768 14.6478 6.71369 14.6743C6.32757 14.4497 5.86497 14.3186 5.36466 14.3186L5.36467 14.3186Z" fill="url(#paint26_linear)" stroke="black" stroke-width="1.64503"/>
<path fill-rule="evenodd" clip-rule="evenodd" d="M4.75285 14.9873C4.28535 14.9873 3.84906 15.1046 3.47896 15.3028H3.44674C2.15023 15.3028 1.0891 16.1818 1.0242 17.2886C1.02195 17.3243 1.0242 17.3607 1.0242 17.3968C1.0242 17.7001 1.10142 17.9873 1.23533 18.2475C0.977083 18.5805 0.827396 18.9791 0.827396 19.4105C0.827396 19.4466 0.825141 19.483 0.827396 19.5187C0.892299 20.6255 1.95342 21.5046 3.24993 21.5046C3.37803 21.5046 3.50288 21.4962 3.62566 21.4798C4.00588 21.6943 4.46157 21.82 4.94964 21.82C5.42236 21.82 5.86493 21.7038 6.23785 21.5015C6.28528 21.504 6.33282 21.5045 6.38098 21.5045C7.71931 21.5045 8.8071 20.5673 8.8071 19.4105C8.8071 19.1057 8.72827 18.8174 8.5924 18.5568C8.85132 18.2245 9.00391 17.8278 9.00391 17.3968C9.00391 16.24 7.91611 15.3027 6.57779 15.3027C6.41442 15.3027 6.25586 15.3165 6.10187 15.343C5.71575 15.1184 5.25315 14.9872 4.75283 14.9872L4.75285 14.9873Z" fill="url(#paint27_linear)"/>
<path fill-rule="evenodd" clip-rule="evenodd" d="M15.8569 10.6228C15.5355 10.6228 15.2357 10.7035 14.9813 10.8397H14.9591C14.068 10.8397 13.3386 11.4439 13.294 12.2046C13.2926 12.2291 13.294 12.2542 13.294 12.279C13.294 12.4875 13.3471 12.6849 13.4391 12.8637C13.2616 13.0926 13.1588 13.3666 13.1588 13.6631C13.1588 13.6879 13.1573 13.713 13.1588 13.7375C13.2034 14.4982 13.9327 15.1024 14.8239 15.1024C14.9119 15.1024 14.9977 15.0967 15.0821 15.0854C15.3435 15.2328 15.6567 15.3193 15.9921 15.3193C16.3171 15.3193 16.6213 15.2393 16.8776 15.1003C16.9102 15.1021 16.9429 15.1024 16.976 15.1024C17.8959 15.1024 18.6435 14.4582 18.6435 13.6631C18.6435 13.4536 18.5894 13.2554 18.496 13.0763C18.6739 12.8479 18.7788 12.5753 18.7788 12.279C18.7788 11.4838 18.0311 10.8397 17.1112 10.8397C16.9989 10.8397 16.89 10.8491 16.7841 10.8673C16.5187 10.713 16.2008 10.6228 15.8569 10.6228L15.8569 10.6228Z" fill="url(#paint28_linear)" stroke="black" stroke-width="1.1307"/>
<path opacity="0.8025" fill-rule="evenodd" clip-rule="evenodd" d="M15.0859 11.3852C14.7646 11.3852 14.4647 11.4659 14.2103 11.6021H14.1881C13.297 11.6021 12.5676 12.2063 12.523 12.967C12.5216 12.9915 12.523 13.0166 12.523 13.0414C12.523 13.2499 12.5761 13.4473 12.6681 13.6261C12.4906 13.855 12.3878 14.129 12.3878 14.4255C12.3878 14.4503 12.3863 14.4754 12.3878 14.4999C12.4324 15.2606 13.1617 15.8648 14.0529 15.8648C14.1409 15.8648 14.2267 15.8591 14.3111 15.8478C14.5725 15.9952 14.8857 16.0817 15.2211 16.0817C15.5461 16.0817 15.8503 16.0017 16.1066 15.8627C16.1392 15.8645 16.1719 15.8648 16.205 15.8648C17.1249 15.8648 17.8725 15.2206 17.8725 14.4255C17.8725 14.216 17.8184 14.0178 17.725 13.8387C17.9029 13.6103 18.0078 13.3377 18.0078 13.0414C18.0078 12.2462 17.2601 11.6021 16.3402 11.6021C16.228 11.6021 16.119 11.6115 16.0131 11.6297C15.7477 11.4754 15.4298 11.3852 15.0859 11.3852L15.0859 11.3852Z" fill="url(#paint29_linear)"/>
<path fill-rule="evenodd" clip-rule="evenodd" d="M72.5989 16.6718C72.2959 16.6718 72.0131 16.7479 71.7732 16.8763H71.7523C70.9119 16.8763 70.2241 17.4461 70.182 18.1636C70.1806 18.1867 70.182 18.2103 70.182 18.2337C70.182 18.4303 70.2321 18.6165 70.3189 18.7851C70.1515 19.001 70.0545 19.2594 70.0545 19.539C70.0545 19.5624 70.053 19.586 70.0545 19.6092C70.0965 20.3266 70.7844 20.8964 71.6248 20.8964C71.7078 20.8964 71.7887 20.891 71.8683 20.8803C72.1148 21.0194 72.4101 21.1009 72.7265 21.1009C73.0329 21.1009 73.3198 21.0255 73.5615 20.8944C73.5923 20.896 73.6231 20.8964 73.6543 20.8964C74.5218 20.8964 75.2269 20.2889 75.2269 19.539C75.2269 19.3415 75.1758 19.1545 75.0878 18.9856C75.2556 18.7702 75.3545 18.5131 75.3545 18.2337C75.3545 17.4838 74.6494 16.8763 73.7819 16.8763C73.676 16.8763 73.5732 16.8853 73.4734 16.9024C73.2231 16.7568 72.9232 16.6718 72.5989 16.6718L72.5989 16.6718Z" fill="url(#paint30_linear)" stroke="black" stroke-width="1.06631"/>
<path fill-rule="evenodd" clip-rule="evenodd" d="M72.202 17.1053C71.8989 17.1053 71.6161 17.1814 71.3762 17.3098H71.3554C70.515 17.3098 69.8271 17.8796 69.7851 18.597C69.7836 18.6202 69.7851 18.6438 69.7851 18.6672C69.7851 18.8638 69.8351 19.05 69.9219 19.2186C69.7545 19.4344 69.6575 19.6928 69.6575 19.9724C69.6575 19.9959 69.656 20.0195 69.6575 20.0426C69.6996 20.76 70.3874 21.3298 71.2278 21.3298C71.3108 21.3298 71.3917 21.3244 71.4713 21.3138C71.7178 21.4528 72.0132 21.5343 72.3295 21.5343C72.636 21.5343 72.9228 21.4589 73.1646 21.3278C73.1953 21.3294 73.2261 21.3298 73.2573 21.3298C74.1248 21.3298 74.8299 20.7223 74.8299 19.9724C74.8299 19.7749 74.7789 19.588 74.6908 19.4191C74.8586 19.2037 74.9575 18.9466 74.9575 18.6672C74.9575 17.9173 74.2524 17.3098 73.3849 17.3098C73.279 17.3098 73.1762 17.3187 73.0764 17.3359C72.8261 17.1903 72.5263 17.1053 72.202 17.1053L72.202 17.1053Z" fill="url(#paint31_linear)"/>
<path fill-rule="evenodd" clip-rule="evenodd" d="M56.4852 17.5802C56.1821 17.5802 55.8993 17.6563 55.6594 17.7847H55.6386C54.7982 17.7847 54.1103 18.3545 54.0683 19.0719C54.0668 19.095 54.0683 19.1186 54.0683 19.1421C54.0683 19.3386 54.1183 19.5248 54.2051 19.6934C54.0377 19.9093 53.9407 20.1677 53.9407 20.4473C53.9407 20.4708 53.9392 20.4944 53.9407 20.5175C53.9828 21.2349 54.6706 21.8047 55.511 21.8047C55.594 21.8047 55.6749 21.7993 55.7545 21.7887C56.001 21.9277 56.2964 22.0092 56.6127 22.0092C56.9192 22.0092 57.206 21.9338 57.4478 21.8027C57.4785 21.8043 57.5093 21.8047 57.5405 21.8047C58.408 21.8047 59.1132 21.1972 59.1132 20.4473C59.1132 20.2498 59.0621 20.0629 58.974 19.8939C59.1418 19.6786 59.2407 19.4214 59.2407 19.1421C59.2407 18.3922 58.5356 17.7847 57.6681 17.7847C57.5622 17.7847 57.4594 17.7936 57.3596 17.8107C57.1093 17.6652 56.8095 17.5802 56.4852 17.5802L56.4852 17.5802Z" fill="url(#paint32_linear)" stroke="black" stroke-width="1.06631"/>
<path fill-rule="evenodd" clip-rule="evenodd" d="M56.0887 18.0136C55.7857 18.0136 55.5029 18.0897 55.263 18.2181H55.2421C54.4017 18.2181 53.7138 18.7879 53.6718 19.5053C53.6703 19.5285 53.6718 19.5521 53.6718 19.5755C53.6718 19.7721 53.7218 19.9583 53.8086 20.1269C53.6412 20.3427 53.5442 20.6011 53.5442 20.8807C53.5442 20.9042 53.5427 20.9278 53.5442 20.9509C53.5863 21.6683 54.2741 22.2381 55.1145 22.2381C55.1975 22.2381 55.2785 22.2327 55.358 22.2221C55.6045 22.3611 55.8999 22.4426 56.2163 22.4426C56.5227 22.4426 56.8095 22.3673 57.0513 22.2361C57.082 22.2377 57.1128 22.2381 57.1441 22.2381C58.0116 22.2381 58.7167 21.6306 58.7167 20.8807C58.7167 20.6832 58.6656 20.4963 58.5775 20.3274C58.7453 20.112 58.8442 19.8549 58.8442 19.5755C58.8442 18.8256 58.1391 18.2181 57.2716 18.2181C57.1657 18.2181 57.0629 18.227 56.9631 18.2442C56.7128 18.0986 56.413 18.0136 56.0887 18.0136L56.0887 18.0136Z" fill="url(#paint33_linear)"/>
<path fill-rule="evenodd" clip-rule="evenodd" d="M22.157 15.8952C21.8515 15.8952 21.5664 15.9429 21.3245 16.0234H21.3035C20.4562 16.0234 19.7628 16.3808 19.7204 16.8307C19.7189 16.8452 19.7204 16.86 19.7204 16.8747C19.7204 16.998 19.7708 17.1148 19.8584 17.2206C19.6896 17.3559 19.5918 17.518 19.5918 17.6934C19.5918 17.7081 19.5903 17.7229 19.5918 17.7374C19.6342 18.1873 20.3276 18.5447 21.1749 18.5447C21.2586 18.5447 21.3402 18.5413 21.4204 18.5346C21.6689 18.6218 21.9667 18.673 22.2856 18.673C22.5945 18.673 22.8838 18.6257 23.1275 18.5434C23.1585 18.5445 23.1895 18.5447 23.221 18.5447C24.0956 18.5447 24.8064 18.1637 24.8064 17.6934C24.8064 17.5695 24.7549 17.4523 24.6661 17.3463C24.8353 17.2113 24.9351 17.05 24.9351 16.8748C24.9351 16.4044 24.2242 16.0234 23.3496 16.0234C23.2428 16.0234 23.1392 16.029 23.0386 16.0398C22.7863 15.9485 22.484 15.8952 22.157 15.8952L22.157 15.8952Z" fill="url(#paint34_linear)" stroke="black" stroke-width="0.8479"/>
<path fill-rule="evenodd" clip-rule="evenodd" d="M21.7576 16.167C21.4521 16.167 21.167 16.2147 20.9251 16.2952H20.9041C20.0568 16.2952 19.3634 16.6526 19.321 17.1025C19.3195 17.117 19.321 17.1319 19.321 17.1465C19.321 17.2698 19.3714 17.3866 19.4589 17.4924C19.2902 17.6278 19.1924 17.7898 19.1924 17.9652C19.1924 17.9799 19.1909 17.9947 19.1924 18.0092C19.2348 18.4591 19.9282 18.8165 20.7755 18.8165C20.8592 18.8165 20.9408 18.8131 21.021 18.8064C21.2695 18.8936 21.5673 18.9448 21.8862 18.9448C22.1951 18.9448 22.4844 18.8975 22.7281 18.8152C22.759 18.8163 22.7901 18.8165 22.8216 18.8165C23.6962 18.8165 24.407 18.4355 24.407 17.9652C24.407 17.8413 24.3555 17.7241 24.2667 17.6181C24.4359 17.483 24.5356 17.3218 24.5356 17.1465C24.5356 16.6762 23.8248 16.2952 22.9502 16.2952C22.8434 16.2952 22.7398 16.3008 22.6392 16.3116C22.3869 16.2203 22.0846 16.167 21.7576 16.167L21.7576 16.167Z" fill="url(#paint35_linear)"/>
<path fill-rule="evenodd" clip-rule="evenodd" d="M62.1023 10.4526C61.7968 10.4526 61.5117 10.5003 61.2699 10.5808H61.2488C60.4015 10.5808 59.7081 10.9382 59.6657 11.3882C59.6642 11.4027 59.6657 11.4175 59.6657 11.4322C59.6657 11.5554 59.7162 11.6722 59.8037 11.778C59.6349 11.9134 59.5371 12.0754 59.5371 12.2508C59.5371 12.2655 59.5356 12.2803 59.5371 12.2948C59.5795 12.7447 60.2729 13.1021 61.1202 13.1021C61.2039 13.1021 61.2855 13.0987 61.3657 13.0921C61.6142 13.1793 61.912 13.2304 62.2309 13.2304C62.5399 13.2304 62.8291 13.1831 63.0728 13.1009C63.1038 13.1019 63.1348 13.1021 63.1663 13.1021C64.0409 13.1021 64.7518 12.7211 64.7518 12.2508C64.7518 12.1269 64.7002 12.0097 64.6115 11.9037C64.7807 11.7687 64.8804 11.6074 64.8804 11.4322C64.8804 10.9619 64.1695 10.5808 63.2949 10.5808C63.1882 10.5808 63.0845 10.5864 62.9839 10.5972C62.7316 10.5059 62.4293 10.4526 62.1023 10.4526L62.1023 10.4526Z" fill="url(#paint36_linear)" stroke="black" stroke-width="0.8479"/>
<path fill-rule="evenodd" clip-rule="evenodd" d="M61.7024 10.7244C61.3969 10.7244 61.1118 10.7721 60.87 10.8527H60.8489C60.0017 10.8527 59.3082 11.21 59.2658 11.66C59.2643 11.6745 59.2658 11.6893 59.2658 11.704C59.2658 11.8273 59.3163 11.944 59.4038 12.0498C59.235 12.1852 59.1372 12.3472 59.1372 12.5226C59.1372 12.5373 59.1357 12.5521 59.1372 12.5666C59.1796 13.0166 59.873 13.3739 60.7203 13.3739C60.804 13.3739 60.8856 13.3706 60.9658 13.3639C61.2143 13.4511 61.5121 13.5022 61.831 13.5022C62.14 13.5022 62.4292 13.4549 62.6729 13.3727C62.7039 13.3737 62.7349 13.3739 62.7664 13.3739C63.641 13.3739 64.3519 12.9929 64.3519 12.5226C64.3519 12.3987 64.3003 12.2815 64.2116 12.1755C64.3808 12.0405 64.4805 11.8792 64.4805 11.704C64.4805 11.2337 63.7696 10.8527 62.895 10.8527C62.7883 10.8527 62.6846 10.8583 62.584 10.869C62.3317 10.7777 62.0294 10.7244 61.7024 10.7244L61.7024 10.7244Z" fill="url(#paint37_linear)"/>
<path fill-rule="evenodd" clip-rule="evenodd" d="M36.0352 13.4342C35.5645 13.4342 35.1252 13.5078 34.7526 13.6319H34.7201C33.4147 13.6319 32.3463 14.1825 32.281 14.8757C32.2787 14.8981 32.281 14.9209 32.281 14.9435C32.281 15.1335 32.3587 15.3134 32.4935 15.4763C32.2335 15.6849 32.0828 15.9346 32.0828 16.2048C32.0828 16.2275 32.0806 16.2503 32.0828 16.2726C32.1482 16.9659 33.2166 17.5165 34.522 17.5165C34.6509 17.5165 34.7767 17.5113 34.9003 17.501C35.2831 17.6353 35.7419 17.7141 36.2333 17.7141C36.7093 17.7141 37.1549 17.6413 37.5304 17.5146C37.5781 17.5162 37.626 17.5165 37.6745 17.5165C39.022 17.5165 40.1173 16.9295 40.1173 16.2048C40.1173 16.014 40.0379 15.8333 39.9011 15.6701C40.1618 15.462 40.3154 15.2135 40.3154 14.9435C40.3154 14.2189 39.2202 13.6319 37.8727 13.6319C37.7082 13.6319 37.5485 13.6405 37.3935 13.6571C37.0047 13.5164 36.5389 13.4343 36.0352 13.4343L36.0352 13.4342Z" fill="url(#paint38_linear)" stroke="black" stroke-width="1.3064"/>
<path fill-rule="evenodd" clip-rule="evenodd" d="M35.419 13.8531C34.9483 13.8531 34.509 13.9266 34.1364 14.0507H34.1039C32.7985 14.0507 31.7301 14.6013 31.6648 15.2946C31.6625 15.3169 31.6648 15.3397 31.6648 15.3624C31.6648 15.5523 31.7425 15.7323 31.8773 15.8952C31.6173 16.1038 31.4666 16.3535 31.4666 16.6237C31.4666 16.6463 31.4643 16.6691 31.4666 16.6915C31.5319 17.3847 32.6004 17.9353 33.9058 17.9353C34.0347 17.9353 34.1604 17.9301 34.2841 17.9198C34.6669 18.0542 35.1257 18.1329 35.6171 18.1329C36.0931 18.1329 36.5387 18.0601 36.9142 17.9334C36.9619 17.935 37.0098 17.9353 37.0583 17.9353C38.4058 17.9353 39.5011 17.3483 39.5011 16.6237C39.5011 16.4328 39.4217 16.2522 39.2849 16.0889C39.5456 15.8808 39.6992 15.6323 39.6992 15.3624C39.6992 14.6377 38.604 14.0507 37.2565 14.0507C37.092 14.0507 36.9323 14.0593 36.7773 14.0759C36.3885 13.9352 35.9227 13.8531 35.419 13.8531H35.419Z" fill="url(#paint39_linear)"/>
<g style="mix-blend-mode:darken">
<ellipse cx="40.2291" cy="11.9668" rx="30.2393" ry="11.4257" fill="#47391D"/>
</g>
<defs>
<linearGradient id="paint0_linear" x1="0.82666" y1="-23.5002" x2="78.3329" y2="-23.5002" gradientUnits="userSpaceOnUse">
<stop stop-color="#766545"/>
<stop offset="1" stop-color="#291D04"/>
</linearGradient>
<linearGradient id="paint1_linear" x1="36.043" y1="-23.482" x2="78.4211" y2="-23.482" gradientUnits="userSpaceOnUse">
<stop stop-color="#766545"/>
<stop offset="1" stop-color="#291D04"/>
</linearGradient>
<linearGradient id="paint2_linear" x1="31.7783" y1="18.5576" x2="37.079" y2="18.5576" gradientUnits="userSpaceOnUse">
<stop stop-color="#766545"/>
<stop offset="1" stop-color="#291D04"/>
</linearGradient>
<linearGradient id="paint3_linear" x1="32.1748" y1="18.991" x2="37.4755" y2="18.991" gradientUnits="userSpaceOnUse">
<stop stop-color="#766545"/>
<stop offset="1" stop-color="#291D04"/>
</linearGradient>
<linearGradient id="paint4_linear" x1="49.1313" y1="18.4596" x2="54.432" y2="18.4596" gradientUnits="userSpaceOnUse">
<stop stop-color="#766545"/>
<stop offset="1" stop-color="#291D04"/>
</linearGradient>
<linearGradient id="paint5_linear" x1="49.5283" y1="18.893" x2="54.829" y2="18.893" gradientUnits="userSpaceOnUse">
<stop stop-color="#766545"/>
<stop offset="1" stop-color="#291D04"/>
</linearGradient>
<linearGradient id="paint6_linear" x1="70.3843" y1="7.73417" x2="78.5618" y2="7.73417" gradientUnits="userSpaceOnUse">
<stop stop-color="#766545"/>
<stop offset="1" stop-color="#291D04"/>
</linearGradient>
<linearGradient id="paint7_linear" x1="70.9961" y1="8.40284" x2="79.1736" y2="8.40284" gradientUnits="userSpaceOnUse">
<stop stop-color="#766545"/>
<stop offset="1" stop-color="#291D04"/>
</linearGradient>
<linearGradient id="paint8_linear" x1="61.2212" y1="6.09709" x2="66.8419" y2="6.09709" gradientUnits="userSpaceOnUse">
<stop stop-color="#766545"/>
<stop offset="1" stop-color="#291D04"/>
</linearGradient>
<linearGradient id="paint9_linear" x1="61.9922" y1="6.85948" x2="67.6129" y2="6.85948" gradientUnits="userSpaceOnUse">
<stop stop-color="#766545"/>
<stop offset="1" stop-color="#291D04"/>
</linearGradient>
<linearGradient id="paint10_linear" x1="4.64551" y1="12.4038" x2="9.9462" y2="12.4038" gradientUnits="userSpaceOnUse">
<stop stop-color="#766545"/>
<stop offset="1" stop-color="#291D04"/>
</linearGradient>
<linearGradient id="paint11_linear" x1="5.04248" y1="12.8373" x2="10.3432" y2="12.8373" gradientUnits="userSpaceOnUse">
<stop stop-color="#766545"/>
<stop offset="1" stop-color="#291D04"/>
</linearGradient>
<linearGradient id="paint12_linear" x1="20.7593" y1="13.3122" x2="26.06" y2="13.3122" gradientUnits="userSpaceOnUse">
<stop stop-color="#766545"/>
<stop offset="1" stop-color="#291D04"/>
</linearGradient>
<linearGradient id="paint13_linear" x1="21.1558" y1="13.7456" x2="26.4564" y2="13.7456" gradientUnits="userSpaceOnUse">
<stop stop-color="#766545"/>
<stop offset="1" stop-color="#291D04"/>
</linearGradient>
<linearGradient id="paint14_linear" x1="55.0649" y1="13.2184" x2="60.4089" y2="13.2184" gradientUnits="userSpaceOnUse">
<stop stop-color="#766545"/>
<stop offset="1" stop-color="#291D04"/>
</linearGradient>
<linearGradient id="paint15_linear" x1="55.4644" y1="13.4902" x2="60.8083" y2="13.4902" gradientUnits="userSpaceOnUse">
<stop stop-color="#766545"/>
<stop offset="1" stop-color="#291D04"/>
</linearGradient>
<linearGradient id="paint16_linear" x1="15.1191" y1="7.77577" x2="20.4631" y2="7.77577" gradientUnits="userSpaceOnUse">
<stop stop-color="#766545"/>
<stop offset="1" stop-color="#291D04"/>
</linearGradient>
<linearGradient id="paint17_linear" x1="15.5195" y1="8.04759" x2="20.8635" y2="8.04759" gradientUnits="userSpaceOnUse">
<stop stop-color="#766545"/>
<stop offset="1" stop-color="#291D04"/>
</linearGradient>
<linearGradient id="paint18_linear" x1="39.6846" y1="9.30994" x2="47.9182" y2="9.30994" gradientUnits="userSpaceOnUse">
<stop stop-color="#766545"/>
<stop offset="1" stop-color="#291D04"/>
</linearGradient>
<linearGradient id="paint19_linear" x1="40.3008" y1="9.72883" x2="48.5344" y2="9.72883" gradientUnits="userSpaceOnUse">
<stop stop-color="#766545"/>
<stop offset="1" stop-color="#291D04"/>
</linearGradient>
<linearGradient id="paint20_linear" x1="79.1738" y1="-23.5002" x2="1.66761" y2="-23.5002" gradientUnits="userSpaceOnUse">
<stop stop-color="#766545"/>
<stop offset="1" stop-color="#291D04"/>
</linearGradient>
<linearGradient id="paint21_linear" x1="43.957" y1="-23.482" x2="1.57887" y2="-23.482" gradientUnits="userSpaceOnUse">
<stop stop-color="#766545"/>
<stop offset="1" stop-color="#291D04"/>
</linearGradient>
<linearGradient id="paint22_linear" x1="48.2217" y1="18.5576" x2="42.921" y2="18.5576" gradientUnits="userSpaceOnUse">
<stop stop-color="#766545"/>
<stop offset="1" stop-color="#291D04"/>
</linearGradient>
<linearGradient id="paint23_linear" x1="47.8252" y1="18.991" x2="42.5245" y2="18.991" gradientUnits="userSpaceOnUse">
<stop stop-color="#766545"/>
<stop offset="1" stop-color="#291D04"/>
</linearGradient>
<linearGradient id="paint24_linear" x1="30.8687" y1="18.4596" x2="25.568" y2="18.4596" gradientUnits="userSpaceOnUse">
<stop stop-color="#766545"/>
<stop offset="1" stop-color="#291D04"/>
</linearGradient>
<linearGradient id="paint25_linear" x1="30.4717" y1="18.893" x2="25.171" y2="18.893" gradientUnits="userSpaceOnUse">
<stop stop-color="#766545"/>
<stop offset="1" stop-color="#291D04"/>
</linearGradient>
<linearGradient id="paint26_linear" x1="9.61572" y1="7.73416" x2="1.43821" y2="7.73416" gradientUnits="userSpaceOnUse">
<stop stop-color="#766545"/>
<stop offset="1" stop-color="#291D04"/>
</linearGradient>
<linearGradient id="paint27_linear" x1="9.00391" y1="8.40284" x2="0.826394" y2="8.40284" gradientUnits="userSpaceOnUse">
<stop stop-color="#766545"/>
<stop offset="1" stop-color="#291D04"/>
</linearGradient>
<linearGradient id="paint28_linear" x1="18.7788" y1="6.09708" x2="13.1581" y2="6.09708" gradientUnits="userSpaceOnUse">
<stop stop-color="#766545"/>
<stop offset="1" stop-color="#291D04"/>
</linearGradient>
<linearGradient id="paint29_linear" x1="18.0078" y1="6.85948" x2="12.3871" y2="6.85948" gradientUnits="userSpaceOnUse">
<stop stop-color="#766545"/>
<stop offset="1" stop-color="#291D04"/>
</linearGradient>
<linearGradient id="paint30_linear" x1="75.3545" y1="12.4038" x2="70.0538" y2="12.4038" gradientUnits="userSpaceOnUse">
<stop stop-color="#766545"/>
<stop offset="1" stop-color="#291D04"/>
</linearGradient>
<linearGradient id="paint31_linear" x1="74.9575" y1="12.8373" x2="69.6568" y2="12.8373" gradientUnits="userSpaceOnUse">
<stop stop-color="#766545"/>
<stop offset="1" stop-color="#291D04"/>
</linearGradient>
<linearGradient id="paint32_linear" x1="59.2407" y1="13.3121" x2="53.94" y2="13.3121" gradientUnits="userSpaceOnUse">
<stop stop-color="#766545"/>
<stop offset="1" stop-color="#291D04"/>
</linearGradient>
<linearGradient id="paint33_linear" x1="58.8442" y1="13.7456" x2="53.5436" y2="13.7456" gradientUnits="userSpaceOnUse">
<stop stop-color="#766545"/>
<stop offset="1" stop-color="#291D04"/>
</linearGradient>
<linearGradient id="paint34_linear" x1="24.9351" y1="13.2183" x2="19.5911" y2="13.2183" gradientUnits="userSpaceOnUse">
<stop stop-color="#766545"/>
<stop offset="1" stop-color="#291D04"/>
</linearGradient>
<linearGradient id="paint35_linear" x1="24.5356" y1="13.4902" x2="19.1917" y2="13.4902" gradientUnits="userSpaceOnUse">
<stop stop-color="#766545"/>
<stop offset="1" stop-color="#291D04"/>
</linearGradient>
<linearGradient id="paint36_linear" x1="64.8804" y1="7.77576" x2="59.5364" y2="7.77576" gradientUnits="userSpaceOnUse">
<stop stop-color="#766545"/>
<stop offset="1" stop-color="#291D04"/>
</linearGradient>
<linearGradient id="paint37_linear" x1="64.4805" y1="8.04759" x2="59.1365" y2="8.04759" gradientUnits="userSpaceOnUse">
<stop stop-color="#766545"/>
<stop offset="1" stop-color="#291D04"/>
</linearGradient>
<linearGradient id="paint38_linear" x1="40.3154" y1="9.30994" x2="32.0818" y2="9.30994" gradientUnits="userSpaceOnUse">
<stop stop-color="#766545"/>
<stop offset="1" stop-color="#291D04"/>
</linearGradient>
<linearGradient id="paint39_linear" x1="39.6992" y1="9.72883" x2="31.4656" y2="9.72883" gradientUnits="userSpaceOnUse">
<stop stop-color="#766545"/>
<stop offset="1" stop-color="#291D04"/>
</linearGradient>
</defs>
</svg>
