<svg width="68" height="79" viewBox="0 0 68 79" fill="none" xmlns="http://www.w3.org/2000/svg">
<path fill-rule="evenodd" clip-rule="evenodd" d="M33.8073 1C33.7224 1 33.6078 1.01307 33.5157 1.01451V1.02902C28.4356 1.08802 16.0857 2.15973 11.5428 13.1946C9.27855 10.1945 11.5409 13.1955 4.23792 6.29059C4.23792 6.29059 -4.92477 15.2401 7.57687 21.5956C11.9192 61.7573 3.07255 77.1902 28.777 76.6386C30.2414 76.6071 31.8491 76.6283 33.5157 76.6676H33.5594L34.3176 76.6821V76.6531C35.9856 76.6137 37.5906 76.5925 39.0563 76.624C64.7607 77.1757 55.914 61.7427 60.2564 21.5811C72.758 15.2255 63.5953 6.27603 63.5953 6.27603C56.2924 13.181 58.5547 10.1799 56.2905 13.18C51.5942 1.77266 38.5321 1 33.8073 1Z" fill="#462727" stroke="black" stroke-width="2"/>
<path fill-rule="evenodd" clip-rule="evenodd" d="M58.6185 58.9011C58.6185 68.7285 47.7434 76.6951 34.3283 76.6951C20.9132 76.6951 10.0381 68.7285 10.0381 58.9011C10.0381 49.0738 20.9132 41.1071 34.3283 41.1071C47.7434 41.1071 58.6185 49.0738 58.6185 58.9011Z" fill="#93939F" stroke="black" stroke-width="2.70513"/>
<path fill-rule="evenodd" clip-rule="evenodd" d="M38.2822 41.672C46.7496 41.971 53.5342 49.5956 53.5342 58.9624C53.5342 67.8028 47.4946 75.087 39.6973 76.1302C45.1377 74.6215 49.2511 67.5647 49.2511 59.085C49.2511 49.8825 44.4089 42.3538 38.2822 41.7758V41.672Z" fill="#7F7F8D"/>
<path fill-rule="evenodd" clip-rule="evenodd" d="M34.3288 41.1071C21.1574 41.411 10.6035 49.1606 10.6035 58.681C10.6035 67.6663 19.9985 75.0699 32.1277 76.1302C23.6648 74.5968 17.2661 67.4243 17.2661 58.8056C17.2661 49.4522 24.7984 41.8001 34.3288 41.2126V41.1071Z" fill="#C1C1C8"/>
<path fill-rule="evenodd" clip-rule="evenodd" d="M25.0352 10.8811C19.035 10.8811 14.1621 16.4971 14.1621 23.4179C14.1621 30.3387 19.035 35.954 25.0352 35.954C28.5614 35.954 31.69 34.0127 33.6764 31.0086C35.6621 34.0147 38.7981 35.954 42.3263 35.954C48.3245 35.954 53.198 30.3374 53.198 23.4179C53.198 16.4984 48.3245 10.8811 42.3263 10.8811C38.7988 10.8811 35.6621 12.8217 33.6764 15.8272C31.69 12.8237 28.5607 10.8811 25.0352 10.8811Z" fill="white" stroke="black" stroke-width="2"/>
<path opacity="0.3374" fill-rule="evenodd" clip-rule="evenodd" d="M47.7343 12.0929C47.867 12.8885 47.93 13.7148 47.93 14.5548C47.93 21.7014 42.9061 27.4949 36.711 27.4949C33.0671 27.4949 29.8169 25.4957 27.766 22.3909C25.7144 25.4936 22.4929 27.4949 18.851 27.4949C17.0443 27.4949 15.3342 27.0045 13.8213 26.1288C14.8192 32.1004 19.3767 36.622 24.8445 36.622C28.4864 36.622 31.7229 34.6057 33.7745 31.503C35.8254 34.6078 39.0606 36.622 42.7046 36.622C48.8996 36.622 53.9386 30.8135 53.9386 23.6669C53.9386 18.6028 51.4103 14.2207 47.7343 12.0929Z" fill="#A5A5A5"/>
<path fill-rule="evenodd" clip-rule="evenodd" d="M32.9894 24.2662C32.9894 25.9989 31.5795 27.4038 29.8413 27.4038C28.1031 27.4038 26.6938 25.9989 26.6938 24.2662C26.6938 22.5328 28.1038 21.128 29.8413 21.128C31.5802 21.1287 32.9894 22.5328 32.9894 24.2662Z" fill="black" stroke="black" stroke-width="3.47634"/>
<path fill-rule="evenodd" clip-rule="evenodd" d="M29.5222 23.1672C29.5222 23.6165 29.1563 23.9806 28.7056 23.9806C28.2549 23.9806 27.8896 23.6165 27.8896 23.1672C27.8896 22.7179 28.2549 22.3531 28.7056 22.3531C29.1563 22.3531 29.5222 22.7179 29.5222 23.1672Z" fill="white"/>
<path fill-rule="evenodd" clip-rule="evenodd" d="M40.9606 24.2662C40.9606 25.9989 39.5513 27.4038 37.8132 27.4038C36.0743 27.4038 34.665 25.9989 34.665 24.2662C34.665 22.5328 36.0743 21.128 37.8132 21.128C39.552 21.128 40.9606 22.5328 40.9606 24.2662Z" fill="black" stroke="black" stroke-width="3.47634"/>
<path fill-rule="evenodd" clip-rule="evenodd" d="M37.4932 23.1672C37.4932 23.6165 37.128 23.9806 36.6773 23.9806C36.2266 23.9806 35.8613 23.6165 35.8613 23.1672C35.8613 22.7179 36.2266 22.3531 36.6773 22.3531C37.128 22.3531 37.4932 22.7179 37.4932 23.1672Z" fill="white"/>
<path fill-rule="evenodd" clip-rule="evenodd" d="M3.41368 9.54649C3.41368 9.54649 -1.32574 15.0224 6.91283 20.2145C8.23548 18.9371 8.42458 18.7111 9.98042 17.4813V16.493C8.09563 15.4682 8.96564 14.1279 5.89187 10.3188L3.41368 9.54649Z" fill="url(#paint0_linear)" stroke="black" stroke-width="1.34331"/>
<path fill-rule="evenodd" clip-rule="evenodd" d="M64.8919 9.79005C64.8919 9.79005 69.6314 15.266 61.3928 20.4581C60.0701 19.1806 59.881 18.9547 58.3252 17.7249V16.7365C60.21 15.7118 59.34 14.3715 62.4138 10.5623L64.8919 9.79005Z" fill="url(#paint1_linear)" stroke="black" stroke-width="1.34331"/>
<path fill-rule="evenodd" clip-rule="evenodd" d="M30.939 41.672C44.1104 41.9759 54.6643 49.7255 54.6643 59.2459C54.6643 68.2312 45.2693 75.6348 33.1401 76.6951C41.603 75.1617 48.0017 67.9892 48.0017 59.3705C48.0017 50.0171 40.4694 42.365 30.939 41.7775V41.672Z" fill="#7F7F8D"/>
<path fill-rule="evenodd" clip-rule="evenodd" d="M33.9064 32.2167C29.8963 32.2167 26.4379 34.1872 24.8519 37.026C21.1939 38.1522 18.8447 39.9188 18.8447 41.9009C18.8447 42.4468 19.0344 42.9812 19.3696 43.4852C19.1178 44.0699 18.9905 44.6791 18.9905 45.3039C18.9905 49.8201 25.9368 53.4787 34.5042 53.4787C43.0716 53.4787 50.0179 49.8201 50.0179 45.3039C50.0179 44.5852 49.838 43.8868 49.5076 43.2227C49.7402 42.7983 49.8721 42.353 49.8721 41.9009C49.8721 39.7308 47.0515 37.8229 42.786 36.726C41.1301 34.0481 37.7749 32.2167 33.9064 32.2167Z" fill="url(#paint2_linear)" stroke="black" stroke-width="2.68662"/>
<path fill-rule="evenodd" clip-rule="evenodd" d="M39.5849 34.9467C39.5849 37.9628 37.1321 40.4079 34.1064 40.4079C31.0807 40.4079 28.6279 37.9628 28.6279 34.9467C28.6279 31.9305 31.0807 29.4854 34.1064 29.4854C37.1321 29.4854 39.5849 31.9305 39.5849 34.9467Z" fill="black"/>
<path fill-rule="evenodd" clip-rule="evenodd" d="M27.4565 46.7178H33.6662V56.1504H27.4565V46.7178Z" fill="url(#paint3_linear)" stroke="black" stroke-width="3.04519"/>
<path fill-rule="evenodd" clip-rule="evenodd" d="M33.7422 46.5426H39.9519V55.9752H33.7422V46.5426Z" fill="url(#paint4_linear)" stroke="black" stroke-width="3.04519"/>
<path d="M21.5845 43.5287C30.6057 48.5482 39.0422 47.7378 47.0203 42.3584" stroke="black" stroke-width="5.37324"/>
<defs>
<linearGradient id="paint0_linear" x1="1.8264" y1="213.706" x2="10.2127" y2="213.706" gradientUnits="userSpaceOnUse">
<stop stop-color="#F1AAC2"/>
<stop offset="1" stop-color="#E5638F"/>
</linearGradient>
<linearGradient id="paint1_linear" x1="66.4792" y1="213.706" x2="58.093" y2="213.706" gradientUnits="userSpaceOnUse">
<stop stop-color="#F1AAC2"/>
<stop offset="1" stop-color="#E5638F"/>
</linearGradient>
<linearGradient id="paint2_linear" x1="27.3738" y1="36.2113" x2="39.2491" y2="56.0413" gradientUnits="userSpaceOnUse">
<stop stop-color="#FFCEAE"/>
<stop offset="1" stop-color="#FFB280"/>
</linearGradient>
<linearGradient id="paint3_linear" x1="26.9218" y1="213.706" x2="34.1975" y2="213.706" gradientUnits="userSpaceOnUse">
<stop stop-color="#8A8A8A"/>
<stop offset="0.2857" stop-color="#F1F1F1"/>
<stop offset="1" stop-color="white"/>
</linearGradient>
<linearGradient id="paint4_linear" x1="33.2061" y1="213.705" x2="40.4818" y2="213.705" gradientUnits="userSpaceOnUse">
<stop stop-color="#8A8A8A"/>
<stop offset="0.2857" stop-color="#F1F1F1"/>
<stop offset="1" stop-color="white"/>
</linearGradient>
</defs>
</svg>
